<?xml version="1.0" encoding="us-ascii" standalone="no"?><svg xmlns="http://www.w3.org/2000/svg" xmlns:xlink="http://www.w3.org/1999/xlink" contentStyleType="text/css" height="435.2617px" preserveAspectRatio="none" style="width:1001px;height:435px;background:#FFFFFF;" version="1.1" viewBox="0 0 1001 435" width="1001.3774px" zoomAndPan="magnify"><defs/><g><!--class Exception--><g id="elem_Exception"><rect codeLine="3" fill="#F1F1F1" height="66.1157" id="Exception" rx="3.4435" ry="3.4435" style="stroke:#181818;stroke-width:0.6887052341597796;" width="133.6088" x="599.1736" y="9.6419"/><ellipse cx="619.8347" cy="31.6804" fill="#ADD1B2" rx="15.1515" ry="15.1515" style="stroke:#181818;stroke-width:1.3774104683195592;"/><path d="M619.103,41.2147 Q616.6925,41.2147 615.1214,40.2032 Q613.5718,39.1701 612.797,37.3192 Q612.0437,35.4468 612.0437,32.9718 Q612.0437,30.1739 612.9477,28.1723 Q613.8516,26.1708 615.6164,25.0947 Q617.3812,24.0186 619.9638,24.0186 Q621.1906,24.0186 622.116,24.2769 Q623.0415,24.5136 623.9885,24.9871 L622.8693,27.7634 Q622.0084,27.333 621.2552,27.1608 Q620.5234,26.9886 619.8562,26.9886 Q618.2421,26.9886 617.2736,27.7204 Q616.3051,28.4521 615.8962,29.765 Q615.4873,31.0778 615.4873,32.8211 Q615.4873,35.5975 616.4773,36.9318 Q617.4673,38.2447 619.6625,38.2447 Q620.4804,38.2447 621.3413,38.0294 Q622.2021,37.8142 623.3428,37.2977 L623.3428,40.3538 Q622.3313,40.7843 621.2336,40.9995 Q620.1575,41.2147 619.103,41.2147 Z " fill="#000000"/><text fill="#000000" font-family="sans-serif" font-size="19.2837" lengthAdjust="spacing" textLength="89.5317" x="639.1185" y="39.1625">Exception</text><line style="stroke:#181818;stroke-width:0.6887052341597796;" x1="600.551" x2="731.405" y1="53.719" y2="53.719"/><line style="stroke:#181818;stroke-width:0.6887052341597796;" x1="600.551" x2="731.405" y1="64.7383" y2="64.7383"/></g><!--class RuntimeException--><g id="elem_RuntimeException"><rect codeLine="6" fill="#F1F1F1" height="66.1157" id="RuntimeException" rx="3.4435" ry="3.4435" style="stroke:#181818;stroke-width:0.6887052341597796;" width="212.1212" x="418.0441" y="184.573"/><ellipse cx="438.7052" cy="206.6116" fill="#ADD1B2" rx="15.1515" ry="15.1515" style="stroke:#181818;stroke-width:1.3774104683195592;"/><path d="M437.9735,216.1458 Q435.563,216.1458 433.9919,215.1343 Q432.4423,214.1012 431.6675,212.2503 Q430.9143,210.3779 430.9143,207.9029 Q430.9143,205.105 431.8182,203.1035 Q432.7221,201.1019 434.4869,200.0258 Q436.2517,198.9497 438.8344,198.9497 Q440.0611,198.9497 440.9866,199.208 Q441.912,199.4447 442.859,199.9182 L441.7398,202.6946 Q440.879,202.2641 440.1257,202.0919 Q439.3939,201.9198 438.7268,201.9198 Q437.1126,201.9198 436.1441,202.6515 Q435.1756,203.3833 434.7667,204.6961 Q434.3578,206.009 434.3578,207.7522 Q434.3578,210.5286 435.3478,211.8629 Q436.3378,213.1758 438.5331,213.1758 Q439.3509,213.1758 440.2118,212.9606 Q441.0727,212.7454 442.2133,212.2288 L442.2133,215.285 Q441.2018,215.7154 440.1042,215.9306 Q439.0281,216.1458 437.9735,216.1458 Z " fill="#000000"/><text fill="#000000" font-family="sans-serif" font-size="19.2837" lengthAdjust="spacing" textLength="168.0441" x="457.989" y="214.0936">RuntimeException</text><line style="stroke:#181818;stroke-width:0.6887052341597796;" x1="419.4215" x2="628.7879" y1="228.6501" y2="228.6501"/><line style="stroke:#181818;stroke-width:0.6887052341597796;" x1="419.4215" x2="628.7879" y1="239.6694" y2="239.6694"/></g><!--class IllegalArgumentException--><g id="elem_IllegalArgumentException"><rect codeLine="9" fill="#F1F1F1" height="66.1157" id="IllegalArgumentException" rx="3.4435" ry="3.4435" style="stroke:#181818;stroke-width:0.6887052341597796;" width="285.124" x="9.6419" y="359.5041"/><ellipse cx="30.303" cy="381.5427" fill="#ADD1B2" rx="15.1515" ry="15.1515" style="stroke:#181818;stroke-width:1.3774104683195592;"/><path d="M29.5713,391.077 Q27.1608,391.077 25.5897,390.0654 Q24.0401,389.0324 23.2653,387.1815 Q22.5121,385.3091 22.5121,382.834 Q22.5121,380.0362 23.416,378.0346 Q24.3199,376.0331 26.0847,374.957 Q27.8495,373.8809 30.4322,373.8809 Q31.6589,373.8809 32.5844,374.1391 Q33.5098,374.3759 34.4568,374.8493 L33.3376,377.6257 Q32.4768,377.1952 31.7235,377.0231 Q30.9917,376.8509 30.3246,376.8509 Q28.7104,376.8509 27.7419,377.5826 Q26.7734,378.3144 26.3645,379.6272 Q25.9556,380.9401 25.9556,382.6834 Q25.9556,385.4597 26.9456,386.7941 Q27.9356,388.1069 30.1309,388.1069 Q30.9487,388.1069 31.8096,387.8917 Q32.6705,387.6765 33.8111,387.16 L33.8111,390.2161 Q32.7996,390.6465 31.702,390.8617 Q30.6259,391.077 29.5713,391.077 Z " fill="#000000"/><text fill="#000000" font-family="sans-serif" font-size="19.2837" lengthAdjust="spacing" textLength="241.0468" x="49.5868" y="389.0248">IllegalArgumentException</text><line style="stroke:#181818;stroke-width:0.6887052341597796;" x1="11.0193" x2="293.3884" y1="403.5813" y2="403.5813"/><line style="stroke:#181818;stroke-width:0.6887052341597796;" x1="11.0193" x2="293.3884" y1="414.6006" y2="414.6006"/></g><!--class ArrayIndexOutOfBoundsException--><g id="elem_ArrayIndexOutOfBoundsException"><rect codeLine="13" fill="#F1F1F1" height="66.1157" id="ArrayIndexOutOfBoundsException" rx="3.4435" ry="3.4435" style="stroke:#181818;stroke-width:0.6887052341597796;" width="362.259" x="342.9752" y="359.5041"/><ellipse cx="363.6364" cy="381.5427" fill="#ADD1B2" rx="15.1515" ry="15.1515" style="stroke:#181818;stroke-width:1.3774104683195592;"/><path d="M362.9046,391.077 Q360.4941,391.077 358.923,390.0654 Q357.3735,389.0324 356.5987,387.1815 Q355.8454,385.3091 355.8454,382.834 Q355.8454,380.0362 356.7493,378.0346 Q357.6532,376.0331 359.418,374.957 Q361.1829,373.8809 363.7655,373.8809 Q364.9923,373.8809 365.9177,374.1391 Q366.8431,374.3759 367.7901,374.8493 L366.671,377.6257 Q365.8101,377.1952 365.0568,377.0231 Q364.3251,376.8509 363.6579,376.8509 Q362.0437,376.8509 361.0752,377.5826 Q360.1067,378.3144 359.6978,379.6272 Q359.2889,380.9401 359.2889,382.6834 Q359.2889,385.4597 360.2789,386.7941 Q361.2689,388.1069 363.4642,388.1069 Q364.282,388.1069 365.1429,387.8917 Q366.0038,387.6765 367.1445,387.16 L367.1445,390.2161 Q366.1329,390.6465 365.0353,390.8617 Q363.9592,391.077 362.9046,391.077 Z " fill="#000000"/><text fill="#000000" font-family="sans-serif" font-size="19.2837" lengthAdjust="spacing" textLength="318.1818" x="382.9201" y="389.0248">ArrayIndexOutOfBoundsException</text><line style="stroke:#181818;stroke-width:0.6887052341597796;" x1="344.3526" x2="703.8567" y1="403.5813" y2="403.5813"/><line style="stroke:#181818;stroke-width:0.6887052341597796;" x1="344.3526" x2="703.8567" y1="414.6006" y2="414.6006"/></g><!--class NullPointerException--><g id="elem_NullPointerException"><rect codeLine="16" fill="#F1F1F1" height="66.1157" id="NullPointerException" rx="3.4435" ry="3.4435" style="stroke:#181818;stroke-width:0.6887052341597796;" width="238.292" x="753.4435" y="359.5041"/><ellipse cx="774.1047" cy="381.5427" fill="#ADD1B2" rx="15.1515" ry="15.1515" style="stroke:#181818;stroke-width:1.3774104683195592;"/><path d="M773.3729,391.077 Q770.9625,391.077 769.3914,390.0654 Q767.8418,389.0324 767.067,387.1815 Q766.3137,385.3091 766.3137,382.834 Q766.3137,380.0362 767.2176,378.0346 Q768.1216,376.0331 769.8864,374.957 Q771.6512,373.8809 774.2338,373.8809 Q775.4606,373.8809 776.386,374.1391 Q777.3115,374.3759 778.2584,374.8493 L777.1393,377.6257 Q776.2784,377.1952 775.5251,377.0231 Q774.7934,376.8509 774.1262,376.8509 Q772.5121,376.8509 771.5436,377.5826 Q770.5751,378.3144 770.1662,379.6272 Q769.7572,380.9401 769.7572,382.6834 Q769.7572,385.4597 770.7472,386.7941 Q771.7373,388.1069 773.9325,388.1069 Q774.7503,388.1069 775.6112,387.8917 Q776.4721,387.6765 777.6128,387.16 L777.6128,390.2161 Q776.6012,390.6465 775.5036,390.8617 Q774.4275,391.077 773.3729,391.077 Z " fill="#000000"/><text fill="#000000" font-family="sans-serif" font-size="19.2837" lengthAdjust="spacing" textLength="194.2149" x="793.3884" y="389.0248">NullPointerException</text><line style="stroke:#181818;stroke-width:0.6887052341597796;" x1="754.8209" x2="990.3581" y1="403.5813" y2="403.5813"/><line style="stroke:#181818;stroke-width:0.6887052341597796;" x1="754.8209" x2="990.3581" y1="414.6006" y2="414.6006"/></g><!--class FileNotFoundException--><g id="elem_FileNotFoundException"><rect codeLine="19" fill="#F1F1F1" height="66.1157" id="FileNotFoundException" rx="3.4435" ry="3.4435" style="stroke:#181818;stroke-width:0.6887052341597796;" width="256.1983" x="678.3747" y="184.573"/><ellipse cx="699.0358" cy="206.6116" fill="#ADD1B2" rx="15.1515" ry="15.1515" style="stroke:#181818;stroke-width:1.3774104683195592;"/><path d="M698.3041,216.1458 Q695.8936,216.1458 694.3225,215.1343 Q692.7729,214.1012 691.9981,212.2503 Q691.2448,210.3779 691.2448,207.9029 Q691.2448,205.105 692.1488,203.1035 Q693.0527,201.1019 694.8175,200.0258 Q696.5823,198.9497 699.1649,198.9497 Q700.3917,198.9497 701.3171,199.208 Q702.2426,199.4447 703.1896,199.9182 L702.0704,202.6946 Q701.2095,202.2641 700.4563,202.0919 Q699.7245,201.9198 699.0573,201.9198 Q697.4432,201.9198 696.4747,202.6515 Q695.5062,203.3833 695.0973,204.6961 Q694.6884,206.009 694.6884,207.7522 Q694.6884,210.5286 695.6784,211.8629 Q696.6684,213.1758 698.8636,213.1758 Q699.6815,213.1758 700.5424,212.9606 Q701.4032,212.7454 702.5439,212.2288 L702.5439,215.285 Q701.5324,215.7154 700.4347,215.9306 Q699.3586,216.1458 698.3041,216.1458 Z " fill="#000000"/><text fill="#000000" font-family="sans-serif" font-size="19.2837" lengthAdjust="spacing" textLength="212.1212" x="718.3196" y="214.0936">FileNotFoundException</text><line style="stroke:#181818;stroke-width:0.6887052341597796;" x1="679.7521" x2="933.1956" y1="228.6501" y2="228.6501"/><line style="stroke:#181818;stroke-width:0.6887052341597796;" x1="679.7521" x2="933.1956" y1="239.6694" y2="239.6694"/></g><!--reverse link Exception to RuntimeException--><g id="link_Exception_RuntimeException"><path codeLine="22" d="M623.8608,95.1945 C598.3787,126.1173 575.7576,153.5813 550.3168,184.449 " fill="none" id="Exception-backto-RuntimeException" style="stroke:#181818;stroke-width:1.3774104683195592;"/><polygon fill="none" points="639.6281,76.0606,617.4828,89.9387,630.2387,100.4502,639.6281,76.0606" style="stroke:#181818;stroke-width:1.3774104683195592;"/><text fill="#000000" font-family="sans-serif" font-size="17.9063" lengthAdjust="spacing" textLength="66.1157" x="605.3719" y="137.5992">extends</text></g><!--reverse link Exception to FileNotFoundException--><g id="link_Exception_FileNotFoundException"><path codeLine="23" d="M707.7553,95.2698 C732.9895,126.1927 755.3306,153.5813 780.5234,184.449 " fill="none" id="Exception-backto-FileNotFoundException" style="stroke:#181818;stroke-width:1.3774104683195592;"/><polygon fill="none" points="692.0799,76.0606,701.3522,100.495,714.1584,90.0447,692.0799,76.0606" style="stroke:#181818;stroke-width:1.3774104683195592;"/><text fill="#000000" font-family="sans-serif" font-size="17.9063" lengthAdjust="spacing" textLength="66.1157" x="747.2452" y="137.5992">extends</text></g><!--reverse link RuntimeException to ArrayIndexOutOfBoundsException--><g id="link_RuntimeException_ArrayIndexOutOfBoundsException"><path codeLine="24" d="M524.1047,275.7851 C524.1047,306.708 524.1047,328.5124 524.1047,359.3802 " fill="none" id="RuntimeException-backto-ArrayIndexOutOfBoundsException" style="stroke:#181818;stroke-width:1.3774104683195592;"/><polygon fill="none" points="524.1047,250.9917,515.8402,275.7851,532.3691,275.7851,524.1047,250.9917" style="stroke:#181818;stroke-width:1.3774104683195592;"/><text fill="#000000" font-family="sans-serif" font-size="17.9063" lengthAdjust="spacing" textLength="66.1157" x="525.4821" y="312.5303">extends</text></g><!--reverse link RuntimeException to NullPointerException--><g id="link_RuntimeException_NullPointerException"><path codeLine="25" d="M611.4712,262.1662 C673.7301,292.9237 744.8347,328.0716 807.1763,358.8705 " fill="none" id="RuntimeException-backto-NullPointerException" style="stroke:#181818;stroke-width:1.3774104683195592;"/><polygon fill="none" points="589.2424,251.1846,607.8106,269.5757,615.1317,254.7566,589.2424,251.1846" style="stroke:#181818;stroke-width:1.3774104683195592;"/><text fill="#000000" font-family="sans-serif" font-size="17.9063" lengthAdjust="spacing" textLength="66.1157" x="721.0744" y="312.5303">extends</text></g><!--reverse link RuntimeException to IllegalArgumentException--><g id="link_RuntimeException_IllegalArgumentException"><path codeLine="26" d="M432.0878,261.6014 C365.6553,292.3589 288.5399,328.0716 222.011,358.8705 " fill="none" id="RuntimeException-backto-IllegalArgumentException" style="stroke:#181818;stroke-width:1.3774104683195592;"/><polygon fill="none" points="454.5868,251.1846,428.6156,254.1017,435.5601,269.101,454.5868,251.1846" style="stroke:#181818;stroke-width:1.3774104683195592;"/><text fill="#000000" font-family="sans-serif" font-size="17.9063" lengthAdjust="spacing" textLength="66.1157" x="362.9477" y="312.5303">extends</text></g><!--SRC=[XP1D2i8m48NtEKKkK8XRSLF1GZUjU8EGZ3KmJIIPO4MzkpyeWJJIvSnyxysy2KeYy9KGWb-CfXDZ2cK8V3SfE9Dnbj_OuzSyH4jcXEAiHOH1Oks7E8AbZFb2jVVosbeDKn-fFsvTj3eKxRg8k7V64lZYl348dQFcxP01gTpSgsf-z9h3HF1Qd9DbpuJFd3wgXKnBycBG9T7VPoVX4m00]--></g></svg>