<?xml version="1.0" encoding="us-ascii" standalone="no"?><svg xmlns="http://www.w3.org/2000/svg" xmlns:xlink="http://www.w3.org/1999/xlink" contentStyleType="text/css" height="406.264px" preserveAspectRatio="none" style="width:400px;height:406px;background:#FFFFFF;" version="1.1" viewBox="0 0 400 406" width="400.8949px" zoomAndPan="magnify"><defs/><g><!--class Unit--><g id="elem_Unit"><rect codeLine="3" fill="#F1F1F1" height="154.1581" id="Unit" rx="4.4743" ry="4.4743" style="stroke:#181818;stroke-width:0.8948545861297538;" width="161.0738" x="117.226" y="12.528"/><ellipse cx="169.8434" cy="41.1633" fill="#A9DCDF" rx="19.6868" ry="19.6868" style="stroke:#181818;stroke-width:1.7897091722595075;"/><path d="M161.2025,51.4541 L167.1868,29.6421 L172.8076,29.6421 L178.8479,51.4541 L174.4295,51.4541 L173.1152,46.057 L166.8233,46.057 L165.481,51.4541 L161.2025,51.4541 Z M169.0884,37.0526 L167.7461,42.4217 L172.2483,42.4217 L170.962,37.0526 Q170.7103,36.0179 170.4866,35.0391 Q170.2629,34.0324 170.0112,32.9978 Q169.8154,34.0324 169.5638,35.0391 Q169.3121,36.0179 169.0884,37.0526 Z " fill="#000000"/><text fill="#000000" font-family="sans-serif" font-size="25.0559" font-style="italic" lengthAdjust="spacing" textLength="46.5324" x="200.6264" y="50.885">Unit</text><line style="stroke:#181818;stroke-width:0.8948545861297538;" x1="119.0157" x2="276.5101" y1="69.7987" y2="69.7987"/><text fill="#000000" font-family="sans-serif" font-size="25.0559" lengthAdjust="spacing" textLength="116.3311" x="127.9642" y="103.7422">int health</text><text fill="#000000" font-family="sans-serif" font-size="25.0559" lengthAdjust="spacing" textLength="139.5973" x="127.9642" y="137.8682">String color</text><line style="stroke:#181818;stroke-width:0.8948545861297538;" x1="119.0157" x2="276.5101" y1="152.3684" y2="152.3684"/></g><!--class Unicorn--><g id="elem_Unicorn"><rect codeLine="8" fill="#F1F1F1" height="85.906" id="Unicorn" rx="4.4743" ry="4.4743" style="stroke:#181818;stroke-width:0.8948545861297538;" width="152.1253" x="12.528" y="308.0805"/><ellipse cx="39.3736" cy="336.7159" fill="#ADD1B2" rx="19.6868" ry="19.6868" style="stroke:#181818;stroke-width:1.7897091722595075;"/><path d="M38.4228,349.104 Q35.2908,349.104 33.2494,347.7897 Q31.236,346.4474 30.2293,344.0425 Q29.2506,341.6096 29.2506,338.3937 Q29.2506,334.7584 30.4251,332.1577 Q31.5996,329.557 33.8926,328.1588 Q36.1857,326.7606 39.5414,326.7606 Q41.1353,326.7606 42.3378,327.0962 Q43.5403,327.4038 44.7707,328.019 L43.3166,331.6264 Q42.198,331.0671 41.2192,330.8434 Q40.2685,330.6197 39.4016,330.6197 Q37.3043,330.6197 36.0459,331.5705 Q34.7875,332.5213 34.2562,334.2271 Q33.7248,335.9329 33.7248,338.198 Q33.7248,341.8054 35.0112,343.5391 Q36.2975,345.245 39.1499,345.245 Q40.2125,345.245 41.3311,344.9653 Q42.4497,344.6857 43.9318,344.0145 L43.9318,347.9855 Q42.6174,348.5447 41.1913,348.8244 Q39.7931,349.104 38.4228,349.104 Z " fill="#000000"/><text fill="#000000" font-family="sans-serif" font-size="25.0559" lengthAdjust="spacing" textLength="94.8546" x="64.4295" y="346.4375">Unicorn</text><line style="stroke:#181818;stroke-width:0.8948545861297538;" x1="14.3177" x2="162.8635" y1="365.3512" y2="365.3512"/><line style="stroke:#181818;stroke-width:0.8948545861297538;" x1="14.3177" x2="162.8635" y1="379.6689" y2="379.6689"/></g><!--class Butterfly--><g id="elem_Butterfly"><rect codeLine="11" fill="#F1F1F1" height="85.906" id="Butterfly" rx="4.4743" ry="4.4743" style="stroke:#181818;stroke-width:0.8948545861297538;" width="161.0738" x="228.1879" y="308.0805"/><ellipse cx="255.0336" cy="336.7159" fill="#ADD1B2" rx="19.6868" ry="19.6868" style="stroke:#181818;stroke-width:1.7897091722595075;"/><path d="M254.0828,349.104 Q250.9508,349.104 248.9094,347.7897 Q246.896,346.4474 245.8893,344.0425 Q244.9105,341.6096 244.9105,338.3937 Q244.9105,334.7584 246.085,332.1577 Q247.2595,329.557 249.5526,328.1588 Q251.8456,326.7606 255.2013,326.7606 Q256.7953,326.7606 257.9978,327.0962 Q259.2002,327.4038 260.4306,328.019 L258.9765,331.6264 Q257.8579,331.0671 256.8792,330.8434 Q255.9284,330.6197 255.0615,330.6197 Q252.9642,330.6197 251.7058,331.5705 Q250.4474,332.5213 249.9161,334.2271 Q249.3848,335.9329 249.3848,338.198 Q249.3848,341.8054 250.6711,343.5391 Q251.9575,345.245 254.8098,345.245 Q255.8725,345.245 256.9911,344.9653 Q258.1096,344.6857 259.5917,344.0145 L259.5917,347.9855 Q258.2774,348.5447 256.8512,348.8244 Q255.453,349.104 254.0828,349.104 Z " fill="#000000"/><text fill="#000000" font-family="sans-serif" font-size="25.0559" lengthAdjust="spacing" textLength="103.8031" x="280.0895" y="346.4375">Butterfly</text><line style="stroke:#181818;stroke-width:0.8948545861297538;" x1="229.9776" x2="387.472" y1="365.3512" y2="365.3512"/><line style="stroke:#181818;stroke-width:0.8948545861297538;" x1="229.9776" x2="387.472" y1="379.6689" y2="379.6689"/></g><!--reverse link Unit to Unicorn--><g id="link_Unit_Unicorn"><path codeLine="14" d="M152.3241,196.6474 C144.8073,214.1328 149.6018,203.0962 142.2819,220.3848 C130.0045,249.396 116.349,282.1655 105.8792,307.4004 " fill="none" id="Unit-backto-Unicorn" style="stroke:#181818;stroke-width:1.7897091722595075;"/><polygon fill="none" points="165.047,167.0515,142.4588,192.4064,162.1894,200.8883,165.047,167.0515" style="stroke:#181818;stroke-width:1.7897091722595075;"/><text fill="#000000" font-family="sans-serif" font-size="23.2662" lengthAdjust="spacing" textLength="85.906" x="144.0716" y="247.0461">extends</text></g><!--reverse link Unit to Butterfly--><g id="link_Unit_Butterfly"><path codeLine="15" d="M243.1956,196.9644 C262.8824,242.7094 274.4698,269.6376 290.7204,307.4183 " fill="none" id="Unit-backto-Butterfly" style="stroke:#181818;stroke-width:1.7897091722595075;"/><polygon fill="none" points="230.4609,167.3736,233.3319,201.2094,253.0592,192.7195,230.4609,167.3736" style="stroke:#181818;stroke-width:1.7897091722595075;"/><text fill="#000000" font-family="sans-serif" font-size="23.2662" lengthAdjust="spacing" textLength="85.906" x="267.5615" y="247.0461">extends</text></g><!--SRC=[JOn12W9130JlUKL_O64FdiIJNn0V4BFH7GWPc4HKrB-xACnwhQhk43R5PXnnArFEH7oAR2m9COx0qKlYIIYUc9LjIN38Llm2gLORlObwARNv4dUqlsPgEzlZ1xzVkzSmz7OBlQVw57zk7Qts0m00]--></g></svg>