<?xml version="1.0" encoding="us-ascii" standalone="no"?><svg xmlns="http://www.w3.org/2000/svg" xmlns:xlink="http://www.w3.org/1999/xlink" contentStyleType="text/css" height="264.8515px" preserveAspectRatio="none" style="width:252px;height:264px;background:#FFFFFF;" version="1.1" viewBox="0 0 252 264" width="252.4752px" zoomAndPan="magnify"><defs/><g><!--class Node--><g id="elem_Node"><rect codeLine="3" fill="#F1F1F1" height="213.2075" id="Node" rx="6.1881" ry="6.1881" style="stroke:#181818;stroke-width:1.2376237623762376;" width="200.495" x="17.3267" y="17.3267"/><ellipse cx="68.9356" cy="56.9307" fill="#ADD1B2" rx="27.2277" ry="27.2277" style="stroke:#181818;stroke-width:2.4752475247524752;"/><path d="M67.6207,74.064 Q63.289,74.064 60.4657,72.2463 Q57.681,70.3899 56.2887,67.0637 Q54.935,63.6989 54.935,59.2512 Q54.935,54.2234 56.5594,50.6265 Q58.1838,47.0297 61.3552,45.0959 Q64.5266,43.1621 69.1677,43.1621 Q71.3722,43.1621 73.0353,43.6262 Q74.6983,44.0517 76.4001,44.9025 L74.3889,49.8917 Q72.8419,49.1182 71.4882,48.8088 Q70.1733,48.4994 68.9743,48.4994 Q66.0736,48.4994 64.3332,49.8144 Q62.5928,51.1293 61.858,53.4886 Q61.1231,55.8478 61.1231,58.9805 Q61.1231,63.9697 62.9022,66.3676 Q64.6813,68.7268 68.6262,68.7268 Q70.0959,68.7268 71.6429,68.34 Q73.19,67.9533 75.2398,67.0251 L75.2398,72.517 Q73.422,73.2905 71.4496,73.6773 Q69.5158,74.064 67.6207,74.064 Z " fill="#000000"/><text fill="#000000" font-family="sans-serif" font-size="34.6535" lengthAdjust="spacing" textLength="89.1089" x="106.8069" y="70.3762">Node</text><line style="stroke:#181818;stroke-width:1.2376237623762376;" x1="19.802" x2="215.3465" y1="96.5347" y2="96.5347"/><text fill="#000000" font-family="sans-serif" font-size="34.6535" lengthAdjust="spacing" textLength="165.8416" x="32.1782" y="143.48">char label</text><text fill="#000000" font-family="sans-serif" font-size="34.6535" lengthAdjust="spacing" textLength="170.7921" x="32.1782" y="190.6779">Node next</text><line style="stroke:#181818;stroke-width:1.2376237623762376;" x1="19.802" x2="215.3465" y1="210.7323" y2="210.7323"/></g><!--SRC=[AqvEp4bLC38rK2ZFJ2d9uE9ApaaiBbRmoqz9LQZcKaZEI2nIo4bCIitXWeZbfLQKSDLo0G00]--></g></svg>