<?xml version="1.0" encoding="us-ascii" standalone="no"?><svg xmlns="http://www.w3.org/2000/svg" xmlns:xlink="http://www.w3.org/1999/xlink" contentStyleType="text/css" height="193.7984px" preserveAspectRatio="none" style="width:501px;height:193px;background:#FFFFFF;" version="1.1" viewBox="0 0 501 193" width="501.938px" zoomAndPan="magnify"><defs/><g><!--class Region--><g id="elem_Region"><rect codeLine="3" fill="#F1F1F1" height="166.9299" id="Region" rx="4.845" ry="4.845" style="stroke:#181818;stroke-width:0.9689922480620154;" width="222.8682" x="13.5659" y="13.5659"/><ellipse cx="74.031" cy="44.5736" fill="#ADD1B2" rx="21.3178" ry="21.3178" style="stroke:#181818;stroke-width:1.937984496124031;"/><path d="M73.0015,57.9881 Q69.61,57.9881 67.3995,56.5649 Q65.2192,55.1114 64.1291,52.5073 Q63.0693,49.8728 63.0693,46.3905 Q63.0693,42.454 64.3411,39.6378 Q65.6129,36.8217 68.0959,35.3077 Q70.579,33.7936 74.2127,33.7936 Q75.9387,33.7936 77.2408,34.157 Q78.5429,34.4901 79.8752,35.1563 L78.3006,39.0625 Q77.0894,38.4569 76.0296,38.2146 Q75,37.9724 74.0613,37.9724 Q71.7902,37.9724 70.4276,39.0019 Q69.0649,40.0315 68.4896,41.8786 Q67.9142,43.7258 67.9142,46.1785 Q67.9142,50.0848 69.3072,51.9622 Q70.7001,53.8094 73.7888,53.8094 Q74.9394,53.8094 76.1507,53.5065 Q77.3619,53.2037 78.9668,52.477 L78.9668,56.7769 Q77.5436,57.3825 75.9993,57.6853 Q74.4852,57.9881 73.0015,57.9881 Z " fill="#000000"/><text fill="#000000" font-family="sans-serif" font-size="27.1318" lengthAdjust="spacing" textLength="91.0853" x="108.1395" y="55.1007">Region</text><line style="stroke:#181818;stroke-width:0.9689922480620154;" x1="15.5039" x2="234.4961" y1="75.5814" y2="75.5814"/><text fill="#000000" font-family="sans-serif" font-size="27.1318" lengthAdjust="spacing" textLength="160.8527" x="25.1938" y="112.3371">String name</text><text fill="#000000" font-family="sans-serif" font-size="27.1318" lengthAdjust="spacing" textLength="199.6124" x="25.1938" y="149.2904">List&lt;City&gt; cities</text><line style="stroke:#181818;stroke-width:0.9689922480620154;" x1="15.5039" x2="234.4961" y1="164.9919" y2="164.9919"/></g><!--class City--><g id="elem_City"><rect codeLine="8" fill="#F1F1F1" height="166.9299" id="City" rx="4.845" ry="4.845" style="stroke:#181818;stroke-width:0.9689922480620154;" width="184.1085" x="304.2636" y="13.5659"/><ellipse cx="366.4729" cy="44.5736" fill="#ADD1B2" rx="21.3178" ry="21.3178" style="stroke:#181818;stroke-width:1.937984496124031;"/><path d="M365.4433,57.9881 Q362.0518,57.9881 359.8413,56.5649 Q357.6611,55.1114 356.571,52.5073 Q355.5111,49.8728 355.5111,46.3905 Q355.5111,42.454 356.7829,39.6378 Q358.0547,36.8217 360.5378,35.3077 Q363.0208,33.7936 366.6546,33.7936 Q368.3806,33.7936 369.6827,34.157 Q370.9847,34.4901 372.3171,35.1563 L370.7425,39.0625 Q369.5312,38.4569 368.4714,38.2146 Q367.4419,37.9724 366.5031,37.9724 Q364.2321,37.9724 362.8694,39.0019 Q361.5068,40.0315 360.9314,41.8786 Q360.3561,43.7258 360.3561,46.1785 Q360.3561,50.0848 361.749,51.9622 Q363.142,53.8094 366.2306,53.8094 Q367.3813,53.8094 368.5925,53.5065 Q369.8038,53.2037 371.4087,52.477 L371.4087,56.7769 Q369.9855,57.3825 368.4411,57.6853 Q366.9271,57.9881 365.4433,57.9881 Z " fill="#000000"/><text fill="#000000" font-family="sans-serif" font-size="27.1318" lengthAdjust="spacing" textLength="48.4496" x="400.969" y="55.1007">City</text><line style="stroke:#181818;stroke-width:0.9689922480620154;" x1="306.2016" x2="486.4341" y1="75.5814" y2="75.5814"/><text fill="#000000" font-family="sans-serif" font-size="27.1318" lengthAdjust="spacing" textLength="160.8527" x="315.8915" y="112.3371">String name</text><text fill="#000000" font-family="sans-serif" font-size="27.1318" lengthAdjust="spacing" textLength="147.2868" x="315.8915" y="149.2904">int zipCode</text><line style="stroke:#181818;stroke-width:0.9689922480620154;" x1="306.2016" x2="486.4341" y1="164.9919" y2="164.9919"/></g><!--SRC=[AqvEp4bLC3KmK2ZFJ2d9uE9ApaaiBbO8IatFpCzJgEPI08BWagBCl7I5lCJSL33V9xEunCOviwJIJY4vioGpjPYh5gOF98f3LsPUYK9LPe5pVaegI3q0]--></g></svg>