<?xml version="1.0" encoding="UTF-8" standalone="no"?>
<!DOCTYPE svg PUBLIC "-//W3C//DTD SVG 1.1//EN"
 "http://www.w3.org/Graphics/SVG/1.1/DTD/svg11.dtd">
<!-- Generated by graphviz version 10.0.1 (0)
 -->
<!-- Title: tree Pages: 1 -->
<svg width="324pt" height="215pt"
 viewBox="0.00 0.00 324.00 215.24" xmlns="http://www.w3.org/2000/svg" xmlns:xlink="http://www.w3.org/1999/xlink">
<g id="graph0" class="graph" transform="scale(1.14488 1.14488) rotate(0) translate(4 184)">
<title>tree</title>
<polygon fill="white" stroke="none" points="-4,4 -4,-184 279,-184 279,4 -4,4"/>
<!-- a -->
<g id="node1" class="node">
<title>a</title>
<ellipse fill="none" stroke="black" cx="137" cy="-162" rx="27" ry="18"/>
<text text-anchor="middle" x="137" y="-157.32" font-family="Times,serif" font-size="14.00">2</text>
</g>
<!-- b -->
<g id="node2" class="node">
<title>b</title>
<ellipse fill="none" stroke="black" cx="88" cy="-90" rx="27" ry="18"/>
<text text-anchor="middle" x="88" y="-85.33" font-family="Times,serif" font-size="14.00">3</text>
</g>
<!-- a&#45;&gt;b -->
<g id="edge1" class="edge">
<title>a&#45;&gt;b</title>
<path fill="none" stroke="black" d="M125.88,-145.12C119.87,-136.52 112.3,-125.72 105.51,-116.02"/>
<polygon fill="black" stroke="black" points="108.54,-114.25 99.94,-108.06 102.81,-118.26 108.54,-114.25"/>
</g>
<!-- am -->
<!-- a&#45;&gt;am -->
<!-- c -->
<g id="node4" class="node">
<title>c</title>
<ellipse fill="none" stroke="black" cx="186" cy="-90" rx="27" ry="18"/>
<text text-anchor="middle" x="186" y="-85.33" font-family="Times,serif" font-size="14.00">1</text>
</g>
<!-- a&#45;&gt;c -->
<g id="edge3" class="edge">
<title>a&#45;&gt;c</title>
<path fill="none" stroke="black" d="M148.12,-145.12C154.13,-136.52 161.7,-125.72 168.49,-116.02"/>
<polygon fill="black" stroke="black" points="171.19,-118.26 174.06,-108.06 165.46,-114.25 171.19,-118.26"/>
</g>
<!-- b&#45;&gt;am -->
<!-- d -->
<g id="node5" class="node">
<title>d</title>
<ellipse fill="none" stroke="black" cx="27" cy="-18" rx="27" ry="18"/>
<text text-anchor="middle" x="27" y="-13.32" font-family="Times,serif" font-size="14.00">4</text>
</g>
<!-- b&#45;&gt;d -->
<g id="edge6" class="edge">
<title>b&#45;&gt;d</title>
<path fill="none" stroke="black" d="M74.76,-73.81C66.85,-64.73 56.62,-53 47.67,-42.72"/>
<polygon fill="black" stroke="black" points="50.41,-40.54 41.2,-35.3 45.14,-45.14 50.41,-40.54"/>
</g>
<!-- bm -->
<!-- b&#45;&gt;bm -->
<!-- br -->
<!-- b&#45;&gt;br -->
<!-- am&#45;&gt;c -->
<!-- e -->
<g id="node8" class="node">
<title>e</title>
<ellipse fill="none" stroke="black" cx="150" cy="-18" rx="27" ry="18"/>
<text text-anchor="middle" x="150" y="-13.32" font-family="Times,serif" font-size="14.00">2</text>
</g>
<!-- c&#45;&gt;e -->
<g id="edge11" class="edge">
<title>c&#45;&gt;e</title>
<path fill="none" stroke="black" d="M177.65,-72.76C173.42,-64.55 168.19,-54.37 163.42,-45.09"/>
<polygon fill="black" stroke="black" points="166.68,-43.79 159,-36.49 160.46,-46.99 166.68,-43.79"/>
</g>
<!-- cm -->
<!-- c&#45;&gt;cm -->
<!-- f -->
<g id="node10" class="node">
<title>f</title>
<ellipse fill="none" stroke="black" cx="248" cy="-18" rx="27" ry="18"/>
<text text-anchor="middle" x="248" y="-13.32" font-family="Times,serif" font-size="14.00">1</text>
</g>
<!-- c&#45;&gt;f -->
<g id="edge13" class="edge">
<title>c&#45;&gt;f</title>
<path fill="none" stroke="black" d="M199.15,-74.15C207.37,-64.87 218.13,-52.73 227.46,-42.19"/>
<polygon fill="black" stroke="black" points="229.86,-44.76 233.87,-34.96 224.62,-40.12 229.86,-44.76"/>
</g>
<!-- d&#45;&gt;bm -->
<!-- bm&#45;&gt;br -->
<!-- e&#45;&gt;cm -->
<!-- cm&#45;&gt;f -->
</g>
</svg>
