<?xml version="1.0" encoding="UTF-8" standalone="no"?>
<!DOCTYPE svg PUBLIC "-//W3C//DTD SVG 1.1//EN"
 "http://www.w3.org/Graphics/SVG/1.1/DTD/svg11.dtd">
<!-- Generated by graphviz version 10.0.1 (0)
 -->
<!-- Title: tree Pages: 1 -->
<svg width="324pt" height="185pt"
 viewBox="0.00 0.00 324.00 184.58" xmlns="http://www.w3.org/2000/svg" xmlns:xlink="http://www.w3.org/1999/xlink">
<g id="graph0" class="graph" transform="scale(0.981818 0.981818) rotate(0) translate(4 184)">
<title>tree</title>
<polygon fill="white" stroke="none" points="-4,4 -4,-184 326,-184 326,4 -4,4"/>
<!-- i -->
<g id="node1" class="node">
<title>i</title>
<ellipse fill="none" stroke="black" cx="163" cy="-162" rx="27" ry="18"/>
<text text-anchor="middle" x="163" y="-157.32" font-family="Times,serif" font-size="14.00">a</text>
</g>
<!-- l -->
<g id="node2" class="node">
<title>l</title>
<ellipse fill="none" stroke="black" cx="103" cy="-90" rx="27" ry="18"/>
<text text-anchor="middle" x="103" y="-85.33" font-family="Times,serif" font-size="14.00">b</text>
</g>
<!-- i&#45;&gt;l -->
<g id="edge1" class="edge">
<title>i&#45;&gt;l</title>
<path fill="none" stroke="black" d="M149.98,-145.81C142.2,-136.73 132.14,-125 123.33,-114.72"/>
<polygon fill="black" stroke="black" points="126.14,-112.62 116.98,-107.31 120.83,-117.18 126.14,-112.62"/>
</g>
<!-- m -->
<!-- i&#45;&gt;m -->
<!-- r -->
<g id="node4" class="node">
<title>r</title>
<ellipse fill="none" stroke="black" cx="218" cy="-90" rx="27" ry="18"/>
<text text-anchor="middle" x="218" y="-85.33" font-family="Times,serif" font-size="14.00">c</text>
</g>
<!-- i&#45;&gt;r -->
<g id="edge3" class="edge">
<title>i&#45;&gt;r</title>
<path fill="none" stroke="black" d="M175.21,-145.46C182.11,-136.67 190.91,-125.48 198.73,-115.53"/>
<polygon fill="black" stroke="black" points="201.47,-117.71 204.89,-107.68 195.96,-113.38 201.47,-117.71"/>
</g>
<!-- ll -->
<g id="node5" class="node">
<title>ll</title>
<ellipse fill="none" stroke="black" cx="27" cy="-18" rx="27" ry="18"/>
<text text-anchor="middle" x="27" y="-13.32" font-family="Times,serif" font-size="14.00">a</text>
</g>
<!-- l&#45;&gt;ll -->
<g id="edge4" class="edge">
<title>l&#45;&gt;ll</title>
<path fill="none" stroke="black" d="M87.62,-74.83C77.01,-65.06 62.7,-51.88 50.65,-40.78"/>
<polygon fill="black" stroke="black" points="53.2,-38.37 43.47,-34.17 48.45,-43.52 53.2,-38.37"/>
</g>
<!-- lm -->
<!-- l&#45;&gt;lm -->
<!-- lr -->
<g id="node7" class="node">
<title>lr</title>
<ellipse fill="none" stroke="black" cx="125" cy="-18" rx="27" ry="18"/>
<text text-anchor="middle" x="125" y="-13.32" font-family="Times,serif" font-size="14.00">c</text>
</g>
<!-- l&#45;&gt;lr -->
<g id="edge6" class="edge">
<title>l&#45;&gt;lr</title>
<path fill="none" stroke="black" d="M108.33,-72.05C110.73,-64.4 113.63,-55.16 116.34,-46.56"/>
<polygon fill="black" stroke="black" points="119.61,-47.82 119.27,-37.23 112.93,-45.72 119.61,-47.82"/>
</g>
<!-- rl -->
<g id="node8" class="node">
<title>rl</title>
<ellipse fill="none" stroke="black" cx="197" cy="-18" rx="27" ry="18"/>
<text text-anchor="middle" x="197" y="-13.32" font-family="Times,serif" font-size="14.00">a</text>
</g>
<!-- r&#45;&gt;rl -->
<g id="edge7" class="edge">
<title>r&#45;&gt;rl</title>
<path fill="none" stroke="black" d="M212.92,-72.05C210.62,-64.4 207.85,-55.16 205.27,-46.56"/>
<polygon fill="black" stroke="black" points="208.7,-45.81 202.47,-37.24 201.99,-47.82 208.7,-45.81"/>
</g>
<!-- rm -->
<!-- r&#45;&gt;rm -->
<!-- rr -->
<g id="node10" class="node">
<title>rr</title>
<ellipse fill="none" stroke="black" cx="295" cy="-18" rx="27" ry="18"/>
<text text-anchor="middle" x="295" y="-13.32" font-family="Times,serif" font-size="14.00">c</text>
</g>
<!-- r&#45;&gt;rr -->
<g id="edge9" class="edge">
<title>r&#45;&gt;rr</title>
<path fill="none" stroke="black" d="M233.58,-74.83C244.33,-65.06 258.83,-51.88 271.04,-40.78"/>
<polygon fill="black" stroke="black" points="273.28,-43.48 278.32,-34.16 268.57,-38.3 273.28,-43.48"/>
</g>
</g>
</svg>
