<?xml version="1.0" encoding="UTF-8" standalone="no"?>
<!DOCTYPE svg PUBLIC "-//W3C//DTD SVG 1.1//EN"
 "http://www.w3.org/Graphics/SVG/1.1/DTD/svg11.dtd">
<!-- Generated by graphviz version 11.0.0 (0)
 -->
<!-- Title: tree Pages: 1 -->
<svg width="479pt" height="612pt"
 viewBox="0.00 0.00 479.28 612.00" xmlns="http://www.w3.org/2000/svg" xmlns:xlink="http://www.w3.org/1999/xlink">
<g id="graph0" class="graph" transform="scale(1.84337 1.84337) rotate(0) translate(4 328)">
<title>tree</title>
<polygon fill="white" stroke="none" points="-4,4 -4,-328 256,-328 256,4 -4,4"/>
<!-- a -->
<g id="node1" class="node">
<title>a</title>
<ellipse fill="none" stroke="black" cx="99" cy="-306" rx="18" ry="18"/>
</g>
<!-- b -->
<g id="node2" class="node">
<title>b</title>
<ellipse fill="none" stroke="black" cx="72" cy="-234" rx="18" ry="18"/>
</g>
<!-- a&#45;&gt;b -->
<g id="edge1" class="edge">
<title>a&#45;&gt;b</title>
<path fill="none" stroke="blue" d="M92.74,-288.76C89.64,-280.72 85.81,-270.81 82.3,-261.69"/>
<polygon fill="blue" stroke="blue" points="85.64,-260.63 78.77,-252.56 79.11,-263.15 85.64,-260.63"/>
</g>
<!-- c -->
<g id="node3" class="node">
<title>c</title>
<ellipse fill="none" stroke="black" cx="126" cy="-234" rx="18" ry="18"/>
</g>
<!-- a&#45;&gt;c -->
<g id="edge2" class="edge">
<title>a&#45;&gt;c</title>
<path fill="none" stroke="blue" d="M105.26,-288.76C108.36,-280.72 112.19,-270.81 115.7,-261.69"/>
<polygon fill="blue" stroke="blue" points="118.89,-263.15 119.23,-252.56 112.36,-260.63 118.89,-263.15"/>
</g>
<!-- d -->
<g id="node4" class="node">
<title>d</title>
<ellipse fill="none" stroke="black" cx="72" cy="-162" rx="18" ry="18"/>
</g>
<!-- b&#45;&gt;d -->
<g id="edge3" class="edge">
<title>b&#45;&gt;d</title>
<path fill="none" stroke="green" d="M72,-215.7C72,-208.41 72,-199.73 72,-191.54"/>
<polygon fill="green" stroke="green" points="75.5,-191.62 72,-181.62 68.5,-191.62 75.5,-191.62"/>
</g>
<!-- e -->
<g id="node5" class="node">
<title>e</title>
<ellipse fill="none" stroke="black" cx="126" cy="-162" rx="18" ry="18"/>
<text text-anchor="middle" x="126" y="-157.32" font-family="Times,serif" font-size="14.00">9</text>
</g>
<!-- c&#45;&gt;e -->
<g id="edge4" class="edge">
<title>c&#45;&gt;e</title>
<path fill="none" stroke="green" d="M126,-215.7C126,-208.41 126,-199.73 126,-191.54"/>
<polygon fill="green" stroke="green" points="129.5,-191.62 126,-181.62 122.5,-191.62 129.5,-191.62"/>
</g>
<!-- f -->
<g id="node6" class="node">
<title>f</title>
<ellipse fill="none" stroke="black" cx="180" cy="-162" rx="18" ry="18"/>
</g>
<!-- c&#45;&gt;f -->
<g id="edge5" class="edge">
<title>c&#45;&gt;f</title>
<path fill="none" stroke="green" d="M136.67,-219.17C143.99,-209.68 153.88,-196.86 162.36,-185.86"/>
<polygon fill="green" stroke="green" points="165.09,-188.06 168.43,-178 159.55,-183.78 165.09,-188.06"/>
</g>
<!-- g -->
<g id="node7" class="node">
<title>g</title>
<ellipse fill="none" stroke="black" cx="18" cy="-90" rx="18" ry="18"/>
<text text-anchor="middle" x="18" y="-85.33" font-family="Times,serif" font-size="14.00">0</text>
</g>
<!-- d&#45;&gt;g -->
<g id="edge6" class="edge">
<title>d&#45;&gt;g</title>
<path fill="none" stroke="blue" d="M61.33,-147.17C54.01,-137.68 44.12,-124.86 35.64,-113.86"/>
<polygon fill="blue" stroke="blue" points="38.45,-111.78 29.57,-106 32.91,-116.06 38.45,-111.78"/>
</g>
<!-- h -->
<g id="node8" class="node">
<title>h</title>
<ellipse fill="none" stroke="black" cx="72" cy="-90" rx="18" ry="18"/>
</g>
<!-- d&#45;&gt;h -->
<g id="edge7" class="edge">
<title>d&#45;&gt;h</title>
<path fill="none" stroke="blue" d="M72,-143.7C72,-136.41 72,-127.73 72,-119.54"/>
<polygon fill="blue" stroke="blue" points="75.5,-119.62 72,-109.62 68.5,-119.62 75.5,-119.62"/>
</g>
<!-- i -->
<g id="node9" class="node">
<title>i</title>
<ellipse fill="none" stroke="black" cx="126" cy="-90" rx="18" ry="18"/>
<text text-anchor="middle" x="126" y="-85.33" font-family="Times,serif" font-size="14.00">0</text>
</g>
<!-- d&#45;&gt;i -->
<g id="edge8" class="edge">
<title>d&#45;&gt;i</title>
<path fill="none" stroke="blue" d="M82.67,-147.17C89.99,-137.68 99.88,-124.86 108.36,-113.86"/>
<polygon fill="blue" stroke="blue" points="111.09,-116.06 114.43,-106 105.55,-111.78 111.09,-116.06"/>
</g>
<!-- j -->
<g id="node10" class="node">
<title>j</title>
<ellipse fill="none" stroke="black" cx="180" cy="-90" rx="18" ry="18"/>
</g>
<!-- f&#45;&gt;j -->
<g id="edge9" class="edge">
<title>f&#45;&gt;j</title>
<path fill="none" stroke="blue" d="M180,-143.7C180,-136.41 180,-127.73 180,-119.54"/>
<polygon fill="blue" stroke="blue" points="183.5,-119.62 180,-109.62 176.5,-119.62 183.5,-119.62"/>
</g>
<!-- k -->
<g id="node11" class="node">
<title>k</title>
<ellipse fill="none" stroke="black" cx="234" cy="-90" rx="18" ry="18"/>
<text text-anchor="middle" x="234" y="-85.33" font-family="Times,serif" font-size="14.00">0</text>
</g>
<!-- f&#45;&gt;k -->
<g id="edge10" class="edge">
<title>f&#45;&gt;k</title>
<path fill="none" stroke="blue" d="M190.67,-147.17C197.99,-137.68 207.88,-124.86 216.36,-113.86"/>
<polygon fill="blue" stroke="blue" points="219.09,-116.06 222.43,-106 213.55,-111.78 219.09,-116.06"/>
</g>
<!-- l -->
<g id="node12" class="node">
<title>l</title>
<ellipse fill="none" stroke="black" cx="45" cy="-18" rx="18" ry="18"/>
<text text-anchor="middle" x="45" y="-13.32" font-family="Times,serif" font-size="14.00">9</text>
</g>
<!-- h&#45;&gt;l -->
<g id="edge11" class="edge">
<title>h&#45;&gt;l</title>
<path fill="none" stroke="green" d="M65.74,-72.76C62.64,-64.72 58.81,-54.81 55.3,-45.69"/>
<polygon fill="green" stroke="green" points="58.64,-44.63 51.77,-36.56 52.11,-47.15 58.64,-44.63"/>
</g>
<!-- m -->
<g id="node13" class="node">
<title>m</title>
<ellipse fill="none" stroke="black" cx="99" cy="-18" rx="18" ry="18"/>
<text text-anchor="middle" x="99" y="-13.32" font-family="Times,serif" font-size="14.00">9</text>
</g>
<!-- h&#45;&gt;m -->
<g id="edge12" class="edge">
<title>h&#45;&gt;m</title>
<path fill="none" stroke="green" d="M78.26,-72.76C81.36,-64.72 85.19,-54.81 88.7,-45.69"/>
<polygon fill="green" stroke="green" points="91.89,-47.15 92.23,-36.56 85.36,-44.63 91.89,-47.15"/>
</g>
<!-- n -->
<g id="node14" class="node">
<title>n</title>
<ellipse fill="none" stroke="black" cx="180" cy="-18" rx="18" ry="18"/>
<text text-anchor="middle" x="180" y="-13.32" font-family="Times,serif" font-size="14.00">9</text>
</g>
<!-- j&#45;&gt;n -->
<g id="edge13" class="edge">
<title>j&#45;&gt;n</title>
<path fill="none" stroke="green" d="M180,-71.7C180,-64.41 180,-55.73 180,-47.54"/>
<polygon fill="green" stroke="green" points="183.5,-47.62 180,-37.62 176.5,-47.62 183.5,-47.62"/>
</g>
</g>
</svg>
