<?xml version="1.0" encoding="UTF-8" standalone="no"?>
<!DOCTYPE svg PUBLIC "-//W3C//DTD SVG 1.1//EN"
 "http://www.w3.org/Graphics/SVG/1.1/DTD/svg11.dtd">
<!-- Generated by graphviz version 10.0.1 (0)
 -->
<!-- Title: tree Pages: 1 -->
<svg width="324pt" height="298pt"
 viewBox="0.00 0.00 324.00 297.67" xmlns="http://www.w3.org/2000/svg" xmlns:xlink="http://www.w3.org/1999/xlink">
<g id="graph0" class="graph" transform="scale(1.14488 1.14488) rotate(0) translate(4 256)">
<title>tree</title>
<polygon fill="white" stroke="none" points="-4,4 -4,-256 279,-256 279,4 -4,4"/>
<!-- a -->
<g id="node1" class="node">
<title>a</title>
<ellipse fill="none" stroke="black" cx="137" cy="-234" rx="27" ry="18"/>
</g>
<!-- b -->
<g id="node2" class="node">
<title>b</title>
<ellipse fill="none" stroke="black" cx="88" cy="-162" rx="27" ry="18"/>
</g>
<!-- a&#45;&gt;b -->
<g id="edge1" class="edge">
<title>a&#45;&gt;b</title>
<path fill="none" stroke="black" d="M125.88,-217.12C119.87,-208.52 112.3,-197.72 105.51,-188.02"/>
<polygon fill="black" stroke="black" points="108.54,-186.25 99.94,-180.06 102.81,-190.26 108.54,-186.25"/>
</g>
<!-- am -->
<!-- a&#45;&gt;am -->
<!-- c -->
<g id="node4" class="node">
<title>c</title>
<ellipse fill="none" stroke="black" cx="186" cy="-162" rx="27" ry="18"/>
</g>
<!-- a&#45;&gt;c -->
<g id="edge3" class="edge">
<title>a&#45;&gt;c</title>
<path fill="none" stroke="black" d="M148.12,-217.12C154.13,-208.52 161.7,-197.72 168.49,-188.02"/>
<polygon fill="black" stroke="black" points="171.19,-190.26 174.06,-180.06 165.46,-186.25 171.19,-190.26"/>
</g>
<!-- b&#45;&gt;am -->
<!-- d -->
<g id="node5" class="node">
<title>d</title>
<ellipse fill="none" stroke="black" cx="27" cy="-90" rx="27" ry="18"/>
</g>
<!-- b&#45;&gt;d -->
<g id="edge6" class="edge">
<title>b&#45;&gt;d</title>
<path fill="none" stroke="black" d="M74.76,-145.81C66.85,-136.73 56.62,-125 47.67,-114.72"/>
<polygon fill="black" stroke="black" points="50.41,-112.54 41.2,-107.3 45.14,-117.14 50.41,-112.54"/>
</g>
<!-- bm -->
<!-- b&#45;&gt;bm -->
<!-- br -->
<!-- b&#45;&gt;br -->
<!-- am&#45;&gt;c -->
<!-- e -->
<g id="node8" class="node">
<title>e</title>
<ellipse fill="none" stroke="black" cx="150" cy="-90" rx="27" ry="18"/>
</g>
<!-- c&#45;&gt;e -->
<g id="edge11" class="edge">
<title>c&#45;&gt;e</title>
<path fill="none" stroke="black" d="M177.65,-144.76C173.42,-136.55 168.19,-126.37 163.42,-117.09"/>
<polygon fill="black" stroke="black" points="166.68,-115.79 159,-108.49 160.46,-118.99 166.68,-115.79"/>
</g>
<!-- cm -->
<!-- c&#45;&gt;cm -->
<!-- f -->
<g id="node10" class="node">
<title>f</title>
<ellipse fill="none" stroke="black" cx="248" cy="-90" rx="27" ry="18"/>
</g>
<!-- c&#45;&gt;f -->
<g id="edge13" class="edge">
<title>c&#45;&gt;f</title>
<path fill="none" stroke="black" d="M199.15,-146.15C207.37,-136.87 218.13,-124.73 227.46,-114.19"/>
<polygon fill="black" stroke="black" points="229.86,-116.76 233.87,-106.96 224.62,-112.12 229.86,-116.76"/>
</g>
<!-- d&#45;&gt;bm -->
<!-- bm&#45;&gt;br -->
<!-- e&#45;&gt;cm -->
<!-- el -->
<!-- e&#45;&gt;el -->
<!-- em -->
<!-- e&#45;&gt;em -->
<!-- g -->
<g id="node13" class="node">
<title>g</title>
<ellipse fill="none" stroke="black" cx="199" cy="-18" rx="27" ry="18"/>
</g>
<!-- e&#45;&gt;g -->
<g id="edge18" class="edge">
<title>e&#45;&gt;g</title>
<path fill="none" stroke="black" d="M161.12,-73.12C167.13,-64.52 174.7,-53.72 181.49,-44.02"/>
<polygon fill="black" stroke="black" points="184.19,-46.26 187.06,-36.06 178.46,-42.25 184.19,-46.26"/>
</g>
<!-- cm&#45;&gt;f -->
<!-- el&#45;&gt;em -->
<!-- em&#45;&gt;g -->
</g>
</svg>
